<?xml version="1.0" encoding="UTF-8" standalone="no"?>
<svg xmlns:rdf="http://www.w3.org/1999/02/22-rdf-syntax-ns#" xmlns="http://www.w3.org/2000/svg" xml:space="preserve" height="295.3" width="622.76" version="1.1" xmlns:cc="http://creativecommons.org/ns#" xmlns:dc="http://purl.org/dc/elements/1.1/" viewBox="0 0 622.76397 295.29587"><defs><clipPath id="s" clipPathUnits="userSpaceOnUse"><path d="m0 0h566.93v566.93h-566.93z"/></clipPath><clipPath id="r" clipPathUnits="userSpaceOnUse"><path d="m54 194h468v223h-468z"/></clipPath><clipPath id="q" clipPathUnits="userSpaceOnUse"><path d="m0 0h567v567h-567z"/></clipPath><clipPath id="p" clipPathUnits="userSpaceOnUse"><path d="m0 566.93h566.93v-566.93h-566.93z"/></clipPath><clipPath id="o" clipPathUnits="userSpaceOnUse"><path d="m0 0h567v567h-567z"/></clipPath><clipPath id="n" clipPathUnits="userSpaceOnUse"><path d="m54 200h468v124h-468z"/></clipPath><clipPath id="m" clipPathUnits="userSpaceOnUse"><path d="m54.166 200.19h467.07v123.77h-467.07z"/></clipPath><clipPath id="l" clipPathUnits="userSpaceOnUse"><path d="m102.78 314.1c0-42.819 81.661-77.534 182.4-77.534 100.73 0 182.39 34.715 182.39 77.534 0 42.821-81.662 77.534-182.39 77.534-100.74 0-182.4-34.713-182.4-77.534"/></clipPath><clipPath id="k" clipPathUnits="userSpaceOnUse"><path d="m0 0h567v567h-567z"/></clipPath><radialGradient id="a" cx="0" gradientUnits="userSpaceOnUse" cy="0" r="1" gradientTransform="matrix(132.78 0 0 -230.46 285.18 314.11)"><stop stop-color="#feece6" offset="0"/><stop stop-color="#f58113" offset="1"/></radialGradient><clipPath id="j" clipPathUnits="userSpaceOnUse"><path d="m0 566.93h566.93v-566.93h-566.93z"/></clipPath><clipPath id="i" clipPathUnits="userSpaceOnUse"><path d="m0 0h567v567h-567z"/></clipPath><clipPath id="h" clipPathUnits="userSpaceOnUse"><path d="m0 566.93h566.93v-566.93h-566.93z"/></clipPath><clipPath id="g" clipPathUnits="userSpaceOnUse"><path d="m0 0h567v567h-567z"/></clipPath><clipPath id="f" clipPathUnits="userSpaceOnUse"><path d="m425 252h45v142h-45z"/></clipPath><clipPath id="e" clipPathUnits="userSpaceOnUse"><path d="m425.55 252.46h43.864v141.24h-43.864z"/></clipPath><clipPath id="d" clipPathUnits="userSpaceOnUse"><path d="m0 566.93h566.93v-566.93h-566.93z"/></clipPath><clipPath id="c" clipPathUnits="userSpaceOnUse"><path d="m0 0h567v567h-567z"/></clipPath><clipPath id="b" clipPathUnits="userSpaceOnUse"><path d="m414 254h63v130h-63z"/></clipPath><clipPath id="an" clipPathUnits="userSpaceOnUse"><path d="m414.45 254.67h62.205v128.59h-62.205z"/></clipPath><clipPath id="am" clipPathUnits="userSpaceOnUse"><path d="m0 566.93h566.93v-566.93h-566.93z"/></clipPath><clipPath id="al" clipPathUnits="userSpaceOnUse"><path d="m0 0h567v567h-567z"/></clipPath><clipPath id="ak" clipPathUnits="userSpaceOnUse"><path d="m421 252h51v136h-51z"/></clipPath><clipPath id="aj" clipPathUnits="userSpaceOnUse"><path d="m421.11 252.57h50.087v134.85h-50.087z"/></clipPath><clipPath id="ai" clipPathUnits="userSpaceOnUse"><path d="m0 566.93h566.93v-566.93h-566.93z"/></clipPath><clipPath id="ah" clipPathUnits="userSpaceOnUse"><path d="m0 0h567v567h-567z"/></clipPath><clipPath id="ag" clipPathUnits="userSpaceOnUse"><path d="m396 267h72v101h-72z"/></clipPath><clipPath id="af" clipPathUnits="userSpaceOnUse"><path d="m396.64 267.98h70.73v99.506h-70.73z"/></clipPath><clipPath id="ae" clipPathUnits="userSpaceOnUse"><path d="m0 566.93h566.93v-566.93h-566.93z"/></clipPath><clipPath id="ad" clipPathUnits="userSpaceOnUse"><path d="m0 0h567v567h-567z"/></clipPath><clipPath id="ac" clipPathUnits="userSpaceOnUse"><path d="m90 256h65v125h-65z"/></clipPath><clipPath id="ab" clipPathUnits="userSpaceOnUse"><path d="m90.572 256.42h63.679v124.27h-63.679z"/></clipPath><clipPath id="aa" clipPathUnits="userSpaceOnUse"><path d="m0 566.93h566.93v-566.93h-566.93z"/></clipPath><clipPath id="z" clipPathUnits="userSpaceOnUse"><path d="m0 0h567v567h-567z"/></clipPath><clipPath id="y" clipPathUnits="userSpaceOnUse"><path d="m94 255h54v129h-54z"/></clipPath><clipPath id="x" clipPathUnits="userSpaceOnUse"><path d="m94.012 255.95h53.138v127.12h-53.138z"/></clipPath><clipPath id="w" clipPathUnits="userSpaceOnUse"><path d="m0 566.93h566.93v-566.93h-566.93z"/></clipPath><clipPath id="v" clipPathUnits="userSpaceOnUse"><path d="m0 0h567v567h-567z"/></clipPath><clipPath id="u" clipPathUnits="userSpaceOnUse"><path d="m101 264h300v115h-300z"/></clipPath><clipPath id="t" clipPathUnits="userSpaceOnUse"><path d="m101.47 264.72h298.95v113.62h-298.95z"/></clipPath></defs><g transform="matrix(1.3333 0 0 -1.3333 -72.221 555.08)"><g clip-path="url(#s)"><g clip-path="url(#r)"><g clip-path="url(#q)"><path d="m287.71 194.84z" fill="#d3d2d2"/></g><g clip-path="url(#p)"><g clip-path="url(#o)"><g clip-path="url(#n)"><g clip-path="url(#m)"><path d="m65.107 308.25c-0.178 1.502-0.27 3.011-0.27 4.528 0 3.772 0.557 7.491 1.664 11.18-0.865-3.385-1.311-6.836-1.311-10.333 0-1.222 0.054-2.441 0.163-3.653-0.094-0.573-0.176-1.145-0.246-1.722m222.6-108.06v5.327 3.728c63.63 0.018 121.28 11.056 163.47 29.201 21.087 9.086 38.368 19.933 50.592 32.367 6.109 6.222 10.974 12.861 14.318 19.885 2.677 5.625 4.369 11.517 4.937 17.551 0.142-1.5 0.215-3.01 0.215-4.527 0-7.615-1.808-15.055-5.152-22.079-3.344-7.041-8.209-13.664-14.318-19.889-12.224-12.43-29.505-23.277-50.592-32.366-42.191-18.143-99.837-29.184-163.47-29.198-41.774 0-80.957 4.785-114.88 13.166-33.919 8.4-62.574 20.384-83.373 35.089-13.855 9.823-24.271 20.896-30.143 33.198-3.344 7.024-5.152 14.464-5.152 22.079 0 1.517 0.073 3.027 0.213 4.527 0.569-6.034 2.261-11.926 4.939-17.551 5.872-12.302 16.288-23.375 30.143-33.197 20.799-14.704 49.454-26.687 83.373-35.09 33.919-8.381 73.102-13.166 114.88-13.166v-3.728-5.327 0" fill="#d3d2d2"/></g></g><g><path d="m287.71 214.59v-5.345c63.63 0.018 121.28 11.056 163.47 29.201 21.087 9.086 38.368 19.933 50.592 32.368 6.109 6.221 10.974 12.86 14.318 19.884s5.152 14.465 5.152 22.08-1.808 15.054-5.152 22.078c-5.872 12.306-16.288 23.376-30.144 33.183-20.782 14.72-49.455 26.704-83.372 35.103-33.919 8.383-73.101 13.168-114.86 13.168-63.646-0.015-121.29-11.056-163.48-29.199-21.088-9.087-38.351-19.937-50.591-32.366-6.111-6.226-10.976-12.865-14.319-19.889-3.344-7.024-5.152-14.463-5.152-22.078s1.808-15.056 5.152-22.08c5.872-12.301 16.288-23.375 30.142-33.197 20.8-14.704 49.455-26.686 83.374-35.09 33.919-8.381 73.102-13.166 114.88-13.166v5.345 5.325c-62.397-0.013-118.86 10.93-159.26 28.322-20.208 8.688-36.351 18.99-47.215 30.062-5.44 5.52-9.552 11.232-12.288 16.975-2.736 5.76-4.112 11.569-4.112 17.504s1.376 11.742 4.112 17.502c4.783 10.066 13.84 19.983 26.672 29.055 19.232 13.649 46.798 25.296 79.773 33.457 32.975 8.159 71.358 12.846 112.32 12.846 62.383 0.016 118.84-10.928 159.24-28.318 20.208-8.688 36.35-18.992 47.214-30.065 5.44-5.519 9.552-11.23 12.288-16.975 2.736-5.76 4.112-11.567 4.112-17.502s-1.376-11.744-4.112-17.504c-4.784-10.062-13.841-19.982-26.672-29.055-19.231-13.649-46.799-25.294-79.772-33.453-32.975-8.159-71.358-12.851-112.3-12.851v-5.325" fill="#ed1c24"/><path d="m288 222.71c121.58 0 220.14 40.703 220.14 90.906 0 50.224-98.557 90.926-220.14 90.926s-220.14-40.702-220.14-90.926c0-50.203 98.556-90.906 220.14-90.906" fill="#fff"/><path d="m288 222.71v-2.674c61.086 0.017 116.4 10.208 156.67 26.833 20.143 8.319 36.542 18.238 48.029 29.453 5.745 5.618 10.256 11.552 13.361 17.792 3.086 6.239 4.751 12.801 4.736 19.502 0.015 6.722-1.65 13.281-4.736 19.521-5.425 10.926-15.168 20.912-28.303 29.839-19.696 13.374-47.072 24.399-79.567 32.11-32.494 7.728-70.109 12.128-110.19 12.128-61.103-0.015-116.41-10.208-156.68-26.831-20.143-8.335-36.526-18.254-48.03-29.455-5.744-5.615-10.256-11.552-13.344-17.791-3.104-6.24-4.751-12.799-4.751-19.521 0-6.701 1.647-13.263 4.751-19.502 5.423-10.927 15.167-20.91 28.288-29.84 19.694-13.375 47.07-24.398 79.564-32.11 32.496-7.725 70.11-12.128 110.21-12.128v2.674 2.656c-60.495 0-115.24 10.159-154.65 26.429-19.696 8.129-35.536 17.81-46.335 28.351-5.392 5.263-9.52 10.735-12.304 16.335-2.768 5.601-4.192 11.312-4.192 17.135 0 5.84 1.424 11.552 4.192 17.153 4.848 9.775 13.903 19.232 26.511 27.791 18.911 12.863 45.774 23.743 77.806 31.342 32.047 7.616 69.261 11.968 108.97 11.968 60.477 0.016 115.24-10.143 154.63-26.415 19.695-8.143 35.551-17.807 46.335-28.35 5.392-5.264 9.535-10.753 12.303-16.336 2.768-5.601 4.192-11.313 4.192-17.153 0-5.823-1.424-11.534-4.192-17.135-4.847-9.791-13.887-19.232-26.51-27.791-18.912-12.864-45.775-23.742-77.806-31.341-32.047-7.615-69.262-11.983-108.96-11.983v-2.656" fill="#e9dda1"/></g></g></g><g clip-path="url(#l)"><g clip-path="url(#k)"><path fill="url(#a)" d="m0 0h567v567h-567z"/></g></g><g clip-path="url(#j)"><g clip-path="url(#i)"><text font-weight="bold" font-size="35.554px" transform="matrix(1 0 0 -1 242.35 253.71)" font-family="HelveticaNeue" fill="#231f20"><tspan y="0" x="0 21.723738 32.212288 64.460129">TIME</tspan></text>
<path d="m445.88 389.32c-3.756 1.518-7.627 2.981-11.602 4.385 0.832 0.417 1.518 0.65 1.994 0.65 0.139 0 0.261-0.021 0.363-0.063 2.993-1.232 5.52-2.496 7.585-3.825 0.565-0.364 1.12-0.748 1.66-1.147"/></g></g><g clip-path="url(#h)"><g clip-path="url(#g)"><g clip-path="url(#f)"><g clip-path="url(#e)"><path d="m448.34 378.83c-7.117 3.082-14.731 5.953-22.795 8.595 3.15 2.722 6.475 5.163 8.727 6.281 3.974-1.404 7.845-2.868 11.601-4.385 1.429-1.061 2.771-2.25 4.035-3.573l-1.568-6.918m10.999-126.37c-0.626 0-1.288 0.038-1.981 0.114 4.233 2.066 8.253 4.212 12.051 6.438-1.237-2.744-3.187-4.681-5.852-5.802-1.201-0.5-2.605-0.75-4.218-0.75" fill="rgba(0,0,0,0.23)"/></g></g></g></g><g clip-path="url(#d)"><g clip-path="url(#c)"><g clip-path="url(#b)"><g clip-path="url(#an)"><path style="fill: rgba(0,0,0,0.23)" d="m442.35 352.44c-7.772 5.496-17.169 10.553-27.904 15.053 0.166 0.69 0.329 1.363 0.49 2.019 0.815 3.392 1.438 6.031 1.871 7.92 0.371 1.364 2.054 3.514 4.298 5.826 7.594-2.404 14.783-5.01 21.524-7.795 1.528-0.63 3.029-1.271 4.509-1.919l-4.788-21.104m25.02-36.473c-0.478 7.936-3.889 15.568-9.797 22.72 1.537 0.791 3.129 1.189 4.778 1.189 1.489 0 3.022-0.325 4.599-0.97 4.497-1.841 7.696-4.257 9.583-7.233 0.953-1.502-4.011-8.823-9.163-15.706m-18.115-61.295c-0.61 0.226-1.235 0.473-1.873 0.733-2.351 0.958-4.303 1.937-5.874 2.926-1.567 0.993-2.846 2.16-3.805 3.522-0.976 1.36-1.762 2.993-2.354 4.895-0.342 1.094-0.653 2.341-0.932 3.739 11.458 6.792 20.306 14.389 25.944 22.559l4.829-17.451 6.127-2.112c0.264-2.103 0.221-4.482-0.125-7.124-6.51-4.131-13.857-8.044-21.937-11.687"/></g></g></g></g><g clip-path="url(#am)"><g clip-path="url(#al)"><g clip-path="url(#ak)"><g clip-path="url(#aj)"><path style="fill: rgba(0,0,0,0.23)" d="m447.14 373.54c-1.48 0.649-2.981 1.29-4.509 1.92-6.741 2.785-13.93 5.391-21.524 7.795 1.334 1.375 2.867 2.809 4.441 4.17 8.064-2.643 15.678-5.514 22.795-8.595l-1.203-5.29m10.221-120.96c-2.341 0.257-5.043 0.955-8.104 2.093 8.08 3.643 15.427 7.556 21.937 11.688-0.177-1.358-0.435-2.785-0.771-4.281-0.255-1.116-0.592-2.132-1.011-3.063-3.798-2.225-7.818-4.372-12.051-6.437" fill="#aca276"/></g></g></g></g><g clip-path="url(#ai)"><g clip-path="url(#ah)"><g clip-path="url(#ag)"><g clip-path="url(#af)"><path style="fill:rgba(0,0,0,0.23)" d="m422.28 267.98c-1.555 0-3.335 0.202-5.336 0.618-2.401 0.511-4.675 1.198-6.834 2.08-5.343 2.192-8.99 4.448-10.927 6.749-1.935 2.306-2.769 5.202-2.48 8.674 0.177 1.712 0.527 4.014 1.024 6.91 0.496 2.882 1.153 6.194 1.95 9.937 0.801 3.729 1.682 7.742 2.658 12.031 0.992 4.399 2.049 9.006 3.136 13.791 1.2 5.295 2.351 10.399 3.473 15.312 1.135 5.04 2.224 9.694 3.246 13.951 0.812 3.441 1.572 6.592 2.264 9.453 10.735-4.5 20.132-9.557 27.904-15.053l-7.497-33.024 12.705 11.937c3.343 3.04 6.561 5.408 9.615 7.12 0.134 0.075 0.265 0.146 0.4 0.214 5.908-7.153 9.319-14.784 9.797-22.72-5.056-6.757-10.291-13.092-10.291-13.092 0.878-2.017 1.95-5.201 3.214-9.583l0.068-0.246c-5.638-8.17-14.485-15.767-25.943-22.559-0.202 1.011-0.388 2.098-0.556 3.268l-2.896 19.776c-0.319 2.209-0.337 5.039-0.064 8.497l-7.727-34.017c-0.293-0.013-0.592-0.024-0.903-0.024"/></g></g><path d="m101.21 364.95c1.081 1.274 2.241 2.507 3.483 3.698 4.191 4.017 9.312 7.344 15.392 9.969 5.04 2.177 9.487 3.534 13.375 4.11 1.603 0.233 3.111 0.349 4.521 0.349 0.037 0 0.075-0.001 0.112-0.001-2.304-0.875-4.562-1.77-6.777-2.683-11.28-4.668-21.38-9.833-30.106-15.442" fill="rgba(0,0,0,0.23)"/></g></g><g clip-path="url(#ae)"><g clip-path="url(#ad)"><g clip-path="url(#ac)"><g clip-path="url(#ab)"><path style="fill:rgba(0,0,0,0.23)" d="m101.47 316.82c-5.981 9.396-11.139 19.534-10.89 22.39 0.434 4.958 1.574 9.649 3.432 14.062 2.254 1.798 4.659 3.566 7.208 5.297 12.234 8.322 27.794 15.812 45.93 22.123 1.121-0.718 2.104-1.589 2.948-2.621 1.664-2.046 2.848-4.51 3.537-7.39 0.264-1.108 0.47-2.182 0.616-3.22-31.237-13.111-51.065-30.916-52.781-50.641m21.458-60.4c-7.199 3.422-13.765 7.068-19.623 10.891-0.092 0.33-0.18 0.663-0.261 1.007-0.864 3.632-0.896 7.215-0.096 10.75 0.8 3.534 2.48 6.607 5.04 9.232 1.713-0.673 3.543-1.184 5.489-1.531 7.509-8.111 18.274-15.549 31.626-22.041-2.091-1.208-4.329-2.326-6.716-3.354-5.908-2.555-11.061-4.205-15.459-4.954"/></g></g></g></g><g clip-path="url(#aa)"><g clip-path="url(#z)"><g clip-path="url(#y)"><g clip-path="url(#x)"><path d="m94.012 353.27c0.27 0.641 0.556 1.276 0.856 1.905 1.666 3.489 3.777 6.75 6.341 9.774 8.726 5.609 18.826 10.774 30.107 15.442 2.215 0.913 4.472 1.807 6.776 2.682 1.963-0.009 3.741-0.243 5.335-0.715 1.376-0.404 2.617-0.962 3.723-1.668-18.135-6.311-33.695-13.8-45.93-22.123-2.549-1.731-4.954-3.498-7.208-5.297m23.801-97.321c-1.333 0-2.57 0.111-3.713 0.333-5.443 1.067-9.036 4.747-10.795 11.028 5.858-3.824 12.425-7.469 19.624-10.892-1.837-0.313-3.542-0.469-5.116-0.469" fill="#aca276"/></g></g></g></g><g clip-path="url(#w)"><g clip-path="url(#v)"><g clip-path="url(#u)"><g clip-path="url(#t)"><path style="fill:rgba(0,0,0,0.23)" d="m288.88 325.81c-2.316 0-4.116-0.736-5.382-2.224-1.279-1.521-1.92-3.247-1.935-5.232 0-1.44 0.432-2.736 1.311-3.855 0.881-1.137 2-1.697 3.376-1.711h0.043c3.022 0 5.453 1.679 7.334 5.086l0.175 7.313c-0.783 0.255-1.52 0.43-2.208 0.497-0.688 0.079-1.568 0.11-2.639 0.126h-0.075m-99.689-45.278h-0.153c-2.432 0.017-4.368 0.754-5.792 2.226-1.44 1.454-2.544 3.774-3.312 6.958-0.783 3.183-1.455 7.649-2.048 13.391-0.576 5.599-1.071 11.455-1.504 17.568-0.432 6.095-0.8 12.175-1.136 18.239l-7.536-1.792c-1.616 3.297-2.639 6.959-3.056 11.008-0.56 5.473 0.768 9.712 3.968 12.703 3.2 2.976 8.591 5.168 16.175 6.575 3.985 0.735 7.232 1.17 9.744 1.312 0.457 0.025 0.916 0.036 1.376 0.036 2.069 0 4.176-0.236 6.337-0.706l-1.793-18.689c0.833 4.415 1.936 8.113 3.313 11.089 1.376 2.975 2.975 5.439 4.815 7.374 1.824 1.938 3.872 3.441 6.128 4.528 2.271 1.089 4.767 1.889 7.487 2.385 1.497 0.278 2.932 0.417 4.308 0.417 4.242 0 7.904-1.323 10.972-3.969 4.064-3.503 6.607-10.08 7.584-19.744 0.368-3.519 0.799-7.887 1.28-13.12 0.48-5.232 0.928-12.256 1.343-21.085l7.218 1.69c0.756 6.174 3.074 11.135 6.943 14.9 4.687 4.562 11.818 6.85 21.376 6.85 0.164 0 0.329 0 0.494-0.002 2.352-0.015 4.337-0.176 5.952-0.448s2.912-0.543 3.889-0.817c0.223 3.28-0.145 5.793-1.056 7.52-0.929 1.712-2.913 2.592-5.952 2.608h-0.238c-4.006 0-7.35-0.799-9.986-2.382-2.721-1.634-4.8-3.618-6.288-5.986-3.711 0.961-6.448 2.882-8.208 5.791-1.744 2.913-2.624 6.082-2.608 9.521 0.016 3.024 0.72 5.888 2.096 8.576 1.392 2.688 3.504 5.007 6.352 6.96 2.863 1.953 6.448 3.503 10.768 4.656 4.149 1.106 9.051 1.668 14.734 1.668 0.234 0 0.469-0.004 0.705-0.004 4.128-0.032 8.017-0.593 11.695-1.679 3.665-1.089 6.865-2.816 9.601-5.217 2.735-2.384 4.831-5.568 6.288-9.537 1.455-3.951 2.111-8.831 2-14.638l-0.545-21.729c-0.017-2.11 0.177-3.519 0.576-4.254 0.384-0.721 0.976-1.089 1.761-1.089h0.081c1.538 0 3.031 0.448 4.478 1.344 1.654-1.181 2.922-2.572 3.81-4.177-0.107 3.197 0.025 6.6 0.398 10.209 0.736 7.168 2.288 13.599 4.656 19.28 2.352 5.679 5.487 10.351 9.376 14.017 3.887 3.678 8.527 6.238 13.92 7.693 2.885 0.778 5.981 1.167 9.288 1.167 2.89 0 5.941-0.297 9.159-0.894 7.855-1.457 13.279-4.175 16.224-8.192 2.96-4 4.175-8.543 3.647-13.632-0.352-3.392-1.248-6.35-2.687-8.879-1.442-2.527-3.329-4.433-5.632-5.744-1.297 0.911-2.993 1.759-5.088 2.543-2.097 0.785-4.418 1.41-6.929 1.89-1.114 0.204-2.166 0.305-3.153 0.305-1.168 0-2.249-0.141-3.246-0.418-1.841-0.528-3.393-1.377-4.641-2.544-1.264-1.152-2.24-2.512-2.942-4.031-0.705-1.538-1.137-3.153-1.313-4.849-0.416-4.046 0.049-7.328 1.375-9.825 1.313-2.51 4.018-4.142 8.098-4.895 1.887-0.35 4.104-0.531 6.662-0.531 0.476 0 0.966 0.007 1.464 0.021 3.168 0.08 5.983 0.495 8.431 1.231 1.889-1.807 3.377-4.015 4.448-6.606 1.073-2.594 1.408-5.715 1.04-9.361-0.655-6.399-3.838-10.704-9.568-12.896-3.097-1.19-6.832-1.784-11.196-1.784-3.682 0-7.809 0.424-12.386 1.271-10.881 2.017-18.768 6.864-23.664 14.545-1.665 2.61-2.97 5.527-3.915 8.753-0.599-4.285-2.634-7.736-6.116-10.336-4.109-3.073-9.86-4.612-17.286-4.612-0.15 0-0.306 0-0.458 0.004-5.105 0.048-8.847 0.896-11.246 2.559-2.386 1.662-3.585 4.608-3.552 8.816 0 0.926 0.031 2.048 0.08 3.361 0.046 1.312 0.175 2.576 0.384 3.758-1.488-6.047-4.049-10.609-7.632-13.678-3.546-3.024-8.329-4.532-14.37-4.532-0.096 0-0.19 0.004-0.286 0.004-7.056 0.063-12.224 2.333-15.487 6.847-0.575 0.792-1.098 1.622-1.571 2.486-0.572-1.736-1.452-3.197-2.637-4.389-2.784-2.785-7.249-4.736-13.36-5.857-4.96-0.927-8.896-1.392-11.807-1.392h-0.091c-2.867 0-5.077 0.753-6.597 2.239-1.536 1.521-2.657 3.999-3.361 7.458-0.704 3.469-1.359 8.191-1.984 14.204-0.352 3.393-0.671 7.025-0.959 10.882-0.304 3.871-0.624 7.439-0.96 10.703-0.304 2.991-0.801 5.04-1.504 6.095-0.549 0.837-1.389 1.254-2.512 1.254-0.318 0-0.659-0.033-1.024-0.101-1.072-0.209-2.112-0.705-3.119-1.488-1.009-0.784-1.825-1.969-2.448-3.536l5.071-49.533c-0.991-0.847-2.64-1.744-4.912-2.705-2.288-0.944-4.639-1.649-7.056-2.097-3.9-0.719-7.064-1.087-9.462-1.087m-44.092-15.812c-13.352 6.492-24.116 13.93-31.626 22.041 1.291-0.229 2.633-0.385 4.031-0.469 0.355-0.024 0.716-0.035 1.084-0.035 3.246 0 6.932 0.889 11.043 2.66 3.728 1.615 6.32 3.118 7.792 4.511 1.472 1.392 2.064 2.718 1.761 3.968-0.241 1.007-0.689 1.601-1.361 1.809-0.432 0.121-0.905 0.184-1.429 0.184-0.292 0-0.597-0.017-0.923-0.059-2.32-0.174-4.928-0.285-7.792-0.351-2.095-0.045-4.536-0.076-7.305-0.076-1.015 0-2.072 0.003-3.175 0.014-3.087 0.038-9.812 8.6-15.733 17.895 1.717 19.725 21.545 37.53 52.781 50.641 0.518-3.67 0.296-6.931-0.664-9.77-1.248-3.65-3.424-6.705-6.544-9.153-0.736 0.512-1.792 0.911-3.152 1.232-1.36 0.302-2.88 0.48-4.528 0.528-0.228 0.007-0.455 0.01-0.684 0.01-1.459 0-2.974-0.131-4.564-0.395-1.824-0.302-3.536-0.799-5.12-1.486-4.287-1.858-7.327-3.618-9.088-5.282-1.758-1.662-2.447-3.294-2.064-4.926 0.273-1.137 0.689-1.792 1.233-1.953 0.341-0.106 0.75-0.162 1.22-0.162 0.3 0 0.623 0.025 0.972 0.066 2.672 0.448 5.599 0.816 8.783 1.086 3.168 0.257 6.832 0.529 10.992 0.803 0.677 0.031 1.341 0.049 1.989 0.049 6.971 0 12.31-1.889 16.043-5.649 4.08-4.129 6.847-9.264 8.319-15.408 1.248-5.265 1.68-10.609 1.28-16.046-0.399-5.424-1.76-10.608-4.08-15.552-2.319-4.945-5.631-9.489-9.951-13.631-2.731-2.639-5.911-5-9.54-7.094"/></g></g><path d="m470.49 279.64-2.052 6.566c-0.392-0.128-1.16-0.267-2.289-0.264-2.228-0.017-5.786 0.566-10.305 1.955-2.192 0.667-3.929 1.326-5.137 1.892l0.006-0.003c-1.019 0.479-1.59 0.93-1.871 1.229l-0.01 0.011c-0.372 0.388-0.716 0.881-1.037 1.638l-0.003 0.011c-0.362 0.847-0.77 2.197-1.107 3.979l-0.006 0.028-2.961 15.093-0.015 0.073c-0.071 0.347-0.142 0.969-0.139 1.813 0 0.723 0.048 1.608 0.158 2.634l-13.42 2.74-7.947-26.054 6.578-2.008-0.296 6.872c-0.203-0.011-0.423-0.015-0.658-0.015-1.148 0-2.638 0.119-4.412 0.396-2.175 0.338-4.2 0.799-6.082 1.372-2.538 0.775-4.585 1.538-6.07 2.223-1.483 0.669-2.39 1.301-2.613 1.513-0.261 0.236-0.279 0.316-0.283 0.316 0.003 0.007-0.013-0.017-0.018 0.201l0.012 0.24-6.839 0.733 6.807-0.973c0.14 0.973 0.461 2.602 0.951 4.702 0.486 2.072 1.124 4.506 1.921 7.284l0.001 0.004c0.805 2.812 1.705 5.846 2.698 9.1 1.028 3.375 2.104 6.896 3.222 10.565 1.239 4.054 2.43 7.963 3.576 11.726 1.169 3.831 2.272 7.365 3.31 10.59l0.001 0.004c1.045 3.26 1.989 6.18 2.829 8.756l0.001 0.004c0.852 2.614 1.501 4.659 1.966 6.178l-6.579 2.007 6.46-2.356c1.176 3.231 2.32 5.676 3.248 7.188h-0.003c0.87 1.433 1.611 2.065 1.947 2.262 0.347 0.196 0.583 0.295 1.283 0.31l0.173-0.003h-0.003c1.149-0.038 2.976-0.347 5.283-1.057 2.846-0.867 5.149-1.747 6.842-2.561l0.023-0.011-0.031 0.014c1.699-0.815 3.232-1.76 4.625-2.84l4.217 5.434-6.58 2.007-21.316-69.88 29.414 20.572-3.944 5.639 3.843-5.706c3.144 2.116 6.058 3.706 8.694 4.804 0.91 0.374 1.737 0.539 2.691 0.543 0.792 0 1.679-0.123 2.724-0.443 1.952-0.593 3.483-1.246 4.576-1.861 1.098-0.618 1.737-1.182 2.057-1.561l0.032-0.04-0.037 0.045c0.167-0.199 0.205-0.291 0.233-0.36 0.022-0.07 0.047-0.136 0.051-0.351 0-0.219-0.039-0.597-0.213-1.167-0.062-0.215-0.309-0.882-0.719-1.774v-0.003c-0.391-0.865-0.722-1.459-0.835-1.629l5.776-3.734-2.821 6.274-26.05-11.72 3.86-6.604c0.269-0.458 0.685-1.267 1.166-2.342 0.484-1.078 1.044-2.424 1.66-4.015l6.413 2.491-6.447-2.396 6.296-16.942 9.804-2.5 1.699 6.666-6.781-1.142c0.046-0.292 0.082-0.646 0.082-1.076 0.001-1.063-0.215-2.594-0.804-4.511l-0.287-0.941 0.287 0.941c-0.228-0.704-0.436-0.985-0.725-1.281-0.299-0.281-0.783-0.625-1.799-0.948h-0.004l2.052-6.566 2.051-6.565c2.657 0.823 5.183 2.183 7.236 4.167 2.062 1.967 3.546 4.506 4.349 7.18l0.335 1.097-0.335-1.097c0.88 2.899 1.397 5.718 1.402 8.524 0 1.125-0.088 2.25-0.274 3.364l-0.745 4.413-7.161 1.826-3.799 10.226-0.019 0.051c-0.684 1.758-1.322 3.31-1.939 4.678-0.618 1.371-1.204 2.555-1.833 3.637l-5.941-3.471 2.822-6.273 20.923 9.416 1.105 1.704c0.68 1.061 1.234 2.149 1.81 3.417 0.558 1.233 1 2.309 1.35 3.445 0.506 1.662 0.809 3.397 0.809 5.18 0.002 1.726-0.295 3.493-0.912 5.145-0.613 1.655-1.537 3.177-2.65 4.481l0.033-0.04-0.038 0.046c-1.623 1.9-3.597 3.397-5.786 4.628-2.192 1.233-4.62 2.208-7.301 3.028-2.198 0.669-4.467 1.042-6.738 1.042-2.733 0.004-5.464-0.546-7.983-1.603-3.65-1.523-7.329-3.564-11.086-6.09l-0.05-0.037-13.125-9.176 3.944-5.639 6.578-2.007 16.882 55.345-3.747 2.906c-2.188 1.698-4.565 3.155-7.098 4.372l-0.007 0.003c-2.541 1.215-5.443 2.292-8.772 3.313-3.096 0.937-5.957 1.527-8.763 1.642l-0.019 0.003 0.014-0.003c-0.233 0.011-0.465 0.015-0.699 0.015-2.911 0.016-5.919-0.762-8.453-2.324-2.774-1.705-4.859-4.116-6.533-6.859v-0.002c-1.618-2.673-3.025-5.83-4.411-9.62l-0.065-0.171-0.053-0.179c-0.421-1.373-1.055-3.37-1.889-5.937l-0.021-0.059 0.022 0.064c-0.851-2.604-1.8-5.545-2.849-8.816l0.002 0.004c-1.063-3.31-2.185-6.905-3.37-10.789-1.148-3.763-2.341-7.671-3.577-11.725-1.121-3.67-2.193-7.19-3.224-10.565-1.011-3.313-1.932-6.422-2.764-9.33l0.002 0.004c-0.848-2.948-1.542-5.589-2.094-7.948-0.543-2.328-0.932-4.228-1.172-5.881l-0.017-0.122-0.012-0.122c-0.063-0.562-0.093-1.131-0.093-1.705-0.006-2.01 0.411-4.093 1.289-5.972 0.868-1.888 2.157-3.527 3.643-4.837 1.77-1.555 3.731-2.669 5.993-3.721 2.263-1.038 4.842-1.976 7.803-2.882 2.555-0.778 5.216-1.375 7.978-1.805l0.064-0.012-0.064 0.012c2.32-0.362 4.476-0.56 6.531-0.563 0.42 0 0.837 0.01 1.252 0.028l4.863 0.211 9.368 30.711-6.579 2.008-6.843 0.728c-0.151-1.425-0.235-2.783-0.235-4.096 0.002-1.536 0.112-3.007 0.401-4.473l-0.017 0.066 2.987-15.201-0.005 0.035c0.471-2.475 1.079-4.701 1.944-6.76l0.02-0.042-0.023 0.049c0.899-2.142 2.167-4.15 3.801-5.843l-0.011 0.009c1.716-1.791 3.763-3.135 5.973-4.173l0.009-0.003c2.02-0.941 4.308-1.782 6.946-2.587 5.345-1.619 9.997-2.541 14.319-2.555 2.191 0.003 4.319 0.246 6.395 0.892l-0.024-0.007 0.021 0.007zm-79.176 22.372-1.893 6.614c-2.372-0.683-5.613-1.108-9.637-1.105-3.394 0-7.341 0.292-11.799 0.907-5.083 0.699-9.269 1.875-12.564 3.385-3.303 1.517-5.712 3.33-7.509 5.424l-0.001 0.003c-1.406 1.646-2.436 3.456-3.162 5.604-0.72 2.144-1.126 4.648-1.126 7.593 0 1.612 0.121 3.348 0.379 5.212 0.659 4.755 2.001 8.816 3.974 12.351 1.964 3.494 4.434 6.236 7.602 8.466l0.001 0.002c3.122 2.188 6.956 3.809 11.74 4.777 2.461 0.495 5.187 0.761 8.185 0.761 2.623 0 5.452-0.203 8.487-0.622 3.683-0.503 6.634-1.224 8.768-2.029 2.145-0.8 3.413-1.679 3.991-2.273l-0.004 0.004c0.799-0.809 1.245-1.5 1.507-2.09 0.26-0.597 0.372-1.111 0.377-1.79 0-0.24-0.018-0.502-0.056-0.79-0.228-1.555-0.68-2.573-1.406-3.542-0.764-0.968-1.625-1.652-3.008-2.244l2.657-6.345 3.173 6.105c-1.951 1.005-4.088 1.771-6.553 2.463-2.509 0.702-5.185 1.236-8.045 1.631-1.426 0.198-2.827 0.304-4.205 0.304-1.608 0-3.192-0.147-4.744-0.475l-0.012-0.003 0.005 0.002c-2.575-0.549-5.045-1.489-7.243-3.004l0.005 0.004c-1.962-1.345-3.708-3.076-4.985-5.163l0.001 0.005c-1.188-1.921-2-4.115-2.305-6.376-0.141-1.016-0.219-2.035-0.219-3.056 0-1.625 0.196-3.264 0.659-4.866 0.459-1.599 1.192-3.154 2.176-4.533l-0.005 0.007c0.776-1.095 1.715-2.031 2.72-2.797 1.513-1.154 3.156-1.946 4.865-2.539 1.713-0.587 3.51-0.976 5.428-1.244 2.346-0.322 4.915-0.465 7.776-0.465 0.534 0 1.081 0.003 1.638 0.016 1.142 0.027 2.013 0.189 2.91 0.385 1.543 0.352 3.093 0.866 4.712 1.513 2.419 0.975 4.918 2.21 7.221 3.791 1.153 0.802 2.266 1.684 3.334 2.856 0.533 0.593 1.059 1.265 1.544 2.105 0.475 0.837 0.92 1.858 1.145 3.115l-6.773 1.198-3.999-5.599 3.425 4.795-4.932-3.231c0.339-0.521 0.854-1.101 1.507-1.564l3.425 4.795-4.932-3.231 4.351 2.85-5.11-1.051c0.082-0.379 0.245-1.002 0.759-1.799l4.351 2.85-5.11-1.051 2.973 0.611h-3.047c0.003-0.052-0.002-0.229 0.074-0.611l2.973 0.611h-3.047 0.424l-0.422 0.018-0.002-0.018h0.424l-0.422 0.018c0.003-0.036-0.049-0.523-0.18-1.15-0.188-0.958-0.519-2.255-0.836-3.632-0.159-0.693-0.315-1.41-0.441-2.177-0.125-0.774-0.238-1.581-0.243-2.606 0.002-0.524 0.032-1.109 0.159-1.821 0.133-0.708 0.359-1.566 0.903-2.552l-0.001 0.004c0.185-0.353 0.348-0.794 0.36-1.743 0-0.33-0.027-0.715-0.087-1.158v0.002c-0.081-0.583-0.216-0.99-0.374-1.32-0.246-0.489-0.536-0.875-1.202-1.379-0.663-0.487-1.739-1.041-3.34-1.499l1.893-6.614 1.89-6.615c3.739 1.073 7.156 2.788 9.854 5.489 1.34 1.344 2.466 2.917 3.293 4.636 0.83 1.715 1.36 3.556 1.616 5.423l0.035 0.262-0.035-0.262c0.137 1.009 0.212 2.021 0.212 3.035 0.011 2.878-0.64 5.827-2.085 8.416v0.004l-4.745-2.636 5.346 0.976c-0.069 0.364-0.195 0.919-0.601 1.66l-4.745-2.636 5.346 0.976-3.559-0.648h3.625c0 0.091 0 0.285-0.066 0.648l-3.559-0.648h3.625-1.425l1.425-0.06v0.06h-1.425l1.425-0.06h-0.001 0.001-0.001 0.001c0.001 0.074 0.071 0.569 0.208 1.197 0.204 0.957 0.535 2.244 0.844 3.629 0.155 0.698 0.304 1.424 0.426 2.199 0.12 0.78 0.219 1.6 0.22 2.582-0.006 0.835-0.056 1.797-0.441 3.057-0.198 0.627-0.493 1.335-0.973 2.071-0.48 0.734-1.16 1.492-2.008 2.094l-8.877 6.338-1.898-10.741 3.54-0.625-2.916 2.197c-0.076-0.117-0.424-0.54-0.624-1.572l3.54-0.625-2.916 2.197 0.662-0.499-0.63 0.542-0.032-0.043 0.662-0.499-0.63 0.542-0.087-0.09c-0.231-0.226-0.891-0.733-1.726-1.228-1.255-0.755-2.914-1.526-4.31-2.04-0.697-0.257-1.331-0.454-1.771-0.562-0.217-0.056-0.386-0.087-0.464-0.101l-0.037-0.003h-0.001l0.213-1.942-0.037 1.949-0.176-0.007 0.213-1.942-0.037 1.949c-0.479-0.007-0.941-0.015-1.389-0.015-2.389 0-4.376 0.127-5.897 0.339-1.641 0.222-2.788 0.568-3.357 0.832-0.288 0.128-0.429 0.227-0.461 0.25l-0.006 0.007-0.552-0.674 0.702 0.498-0.15 0.176-0.552-0.674 0.702 0.498-0.008 0.009c-0.053 0.083-0.099 0.16-0.163 0.362-0.056 0.205-0.121 0.541-0.121 1.058 0 0.325 0.026 0.717 0.091 1.177 0.051 0.336 0.137 0.615 0.395 1.045l0.034 0.056-0.031-0.052c0.162 0.26 0.434 0.593 1.061 1.031l-0.022-0.017 0.028 0.021c0.386 0.267 1.1 0.617 2.303 0.873h-0.006c0.482 0.102 1.11 0.175 1.888 0.175 0.668 0 1.446-0.054 2.324-0.175 2.338-0.322 4.415-0.747 6.223-1.252 1.847-0.514 3.195-1.047 3.911-1.423l2.86-1.485 2.969 1.243c3.37 1.398 6.379 3.648 8.594 6.543 2.249 2.903 3.645 6.413 4.135 10.057v0.002c0.12 0.88 0.184 1.771 0.184 2.665 0.006 2.526-0.529 5.067-1.561 7.376-1.028 2.316-2.521 4.384-4.304 6.182l-0.004 0.004c-2.462 2.471-5.498 4.171-8.922 5.465-3.433 1.286-7.312 2.17-11.726 2.783-3.585 0.493-7.04 0.746-10.366 0.746-3.804 0-7.441-0.333-10.905-1.031-6.325-1.271-12.047-3.576-16.925-7.005l0.072 0.051-0.071-0.049c-4.84-3.389-8.802-7.809-11.706-13.01-2.891-5.167-4.741-10.955-5.596-17.191v0.004c-0.335-2.427-0.509-4.788-0.509-7.094 0-4.208 0.585-8.232 1.844-11.977 1.255-3.744 3.2-7.195 5.756-10.171l-0.08 0.094 0.08-0.094c3.244-3.795 7.418-6.785 12.233-8.986 4.823-2.205 10.297-3.656 16.408-4.503 4.953-0.681 9.501-1.038 13.679-1.038 4.957 0.003 9.405 0.492 13.42 1.635zm-97.785 33.139 0.523 6.859c-0.947 0.071-1.987 0.104-3.206 0.111h-0.128c-1.736 0-3.476-0.205-5.199-0.732-1.714-0.528-3.415-1.417-4.849-2.674l0.215 0.187-0.215-0.187c-1.214-1.06-2.326-2.387-3.118-3.979-0.797-1.583-1.222-3.41-1.226-5.16l0.002 0.062-0.002-0.055v-0.071c-0.005-1.482 0.324-3.047 0.962-4.425 0.634-1.382 1.535-2.556 2.515-3.486l-0.006 0.007c1.09-1.052 2.444-1.91 3.878-2.444 1.432-0.539 2.91-0.766 4.309-0.771l0.104-0.002c2.502-0.007 5.08 0.55 7.362 1.741 2.291 1.177 4.216 2.93 5.693 4.938l1.275 1.722 0.437 13.266-5.359 1.367c-1.132 0.288-2.268 0.491-3.419 0.584l-0.014 0.001h-0.011l-0.523-6.859-0.546-6.856c0.257-0.021 0.634-0.079 1.117-0.201l1.698 6.666-6.877 0.226-0.182-5.597 6.875-0.229-5.531 4.093c-0.443-0.59-0.732-0.782-0.95-0.899-0.224-0.108-0.45-0.196-1.045-0.205h-0.024l-0.004-0.713 0.119 0.699-0.114 0.014-0.005-0.713 0.119 0.699-0.369-2.149 1.495 1.562c-0.278 0.296-0.881 0.568-1.126 0.587l-0.369-2.149 1.495 1.562-0.014 0.014 0.007-0.006-1.635-1.715 2.134 0.975c-0.185 0.406-0.415 0.663-0.499 0.74l-1.635-1.715 2.134 0.975-2.851-1.304h3.138c0.008 0.38-0.099 0.908-0.287 1.304l-2.851-1.304h3.138-3.38l3.38-0.022v0.022h-3.38l3.38-0.022v-0.061 0.067l-2.027 0.012 1.81-0.902c0.136 0.25 0.225 0.655 0.217 0.89l-2.027 0.012 1.81-0.902-1.282 0.638 1.125-0.897 0.157 0.259-1.282 0.638 1.125-0.897-0.306 0.244 0.281-0.272 0.025 0.028-0.306 0.244 0.281-0.272 0.04 0.039-0.217-0.19 0.215 0.19-0.609 0.696 0.444-0.816 0.165 0.12-0.609 0.696 0.444-0.816-0.151 0.276 0.131-0.287 0.02 0.011-0.151 0.276 0.131-0.287s0.067 0.032 0.262 0.068c0.193 0.035 0.498 0.07 0.918 0.07h0.046c1.002-0.007 1.777-0.037 2.244-0.074h-0.012l-0.013 0.004zm38.834-23.609-3.348 6.01c-1.336-0.746-3.183-1.43-5.596-1.906-2.408-0.479-5.363-0.753-8.825-0.752l-0.45 0.002c-2.346 0.012-4.277 0.17-5.717 0.417-1.44 0.236-2.373 0.583-2.727 0.772l-0.002 0.002-0.062 0.035-0.307-0.434 0.404 0.337-0.097 0.097-0.307-0.434 0.404 0.337-0.571-0.479 0.656 0.354-0.085 0.125-0.571-0.479 0.656 0.354-0.351-0.19 0.368 0.163-0.017 0.027-0.351-0.19 0.368 0.163-0.062-0.025 0.062 0.022v0.003l-0.062-0.025 0.062 0.022c-0.006 0.01-0.088 0.243-0.086 0.791v0.009 0.019 0.002c0.002 0.553 0.028 1.303 0.08 2.219v0.016c0.036 0.652 0.12 1.224 0.232 1.708l-13.232 3.713c-0.568-1.701-1.277-3.041-2.095-4.135-0.823-1.092-1.758-1.956-2.922-2.7l-0.002-0.001c-1.067-0.679-2.466-1.278-4.307-1.71-1.834-0.432-4.103-0.686-6.785-0.684h-0.257c-3.093 0.015-5.539 0.406-7.324 0.996-1.795 0.597-2.906 1.332-3.72 2.161l0.029-0.029-0.033 0.033c-1.056 1.089-1.757 2.191-2.257 3.469-0.493 1.281-0.782 2.77-0.784 4.632v0.086 0.016c0.018 2.304 0.45 4.019 1.159 5.446 0.721 1.429 1.747 2.663 3.42 3.882 1.509 1.095 3.689 2.101 6.691 2.814 2.993 0.717 6.775 1.127 11.289 1.123h0.454c2.227-0.012 4.028-0.121 5.302-0.285h-0.009c1.559-0.196 2.762-0.39 3.499-0.543l7.576-1.554 0.66 7.707c0.055 0.644 0.086 1.283 0.086 1.922-0.004 1.409-0.142 2.826-0.516 4.256-0.373 1.428-1 2.878-1.946 4.188l-0.007 0.01c-0.76 1.055-1.708 1.918-2.687 2.566-1.481 0.976-2.999 1.503-4.472 1.83-1.483 0.323-2.955 0.444-4.489 0.454h-0.29c-4.794-0.007-9.169-0.687-13.089-2.429h-0.002c-3.476-1.558-6.543-3.625-8.907-6.424l5.259-4.434 1.283 6.757c-1.381 0.262-2.39 0.63-3.068 0.987-0.684 0.365-1.045 0.692-1.315 1.019l0.032-0.041-0.033 0.041c-0.48 0.598-0.747 1.095-0.911 1.532-0.163 0.444-0.238 0.843-0.241 1.351v0.013l-3.365 0.013 3.365-0.047v0.034l-3.365 0.013 3.365-0.047 0.001 0.034v0.019c0.004 0.464 0.068 0.856 0.207 1.278s0.358 0.881 0.728 1.418l0.133 0.191-0.131-0.191c0.595 0.87 1.791 1.993 4.005 3.118l0.072 0.04-0.07-0.036c2.164 1.111 5.278 2.155 9.28 2.947 3.684 0.733 8.325 1.14 13.843 1.14 0.225 0 0.449 0 0.676-0.004 3.801-0.021 7.325-0.404 10.592-1.121l-0.003 0.003c3.097-0.684 5.583-1.722 7.613-3.041l-0.004 0.003c1.817-1.201 3.057-2.593 4.051-4.58 0.801-1.619 1.359-3.937 1.359-7.152 0-0.268-0.006-0.544-0.013-0.827l0.002 0.032-0.554-16.726-0.001-0.094v-0.159c0.003-1.066 0.057-2.088 0.262-3.212 0.106-0.564 0.251-1.158 0.491-1.812 0.244-0.653 0.58-1.377 1.134-2.15l-0.014 0.021-0.005 0.007c0.826-1.177 2.083-2.246 3.45-2.866 1.362-0.637 2.739-0.853 3.919-0.856h0.104c2.581-0.006 5.17 0.58 7.507 1.661l-2.875 6.249-3.219-6.08c0.69-0.361 1.121-0.696 1.365-0.934 0.249-0.24 0.314-0.368 0.358-0.455l-0.002 0.003c0.4-0.874 0.604-1.755 0.61-2.919v-0.08 0.027c-0.023-0.965-0.186-1.399-0.523-1.945-0.346-0.531-1.022-1.245-2.436-2.037l0.003 0.003 3.348-6.01 3.347-6.01c2.888 1.608 5.444 3.75 7.261 6.534 1.829 2.771 2.759 6.113 2.759 9.386v0.014 0.013 0.105c0.007 3.003-0.625 6-1.89 8.714l-0.003 0.008c-0.805 1.73-1.951 3.276-3.285 4.559-1.337 1.284-2.849 2.324-4.474 3.184l-3.006 1.591-3.086-1.421c-0.658-0.296-1.161-0.396-1.759-0.403h-0.024l-0.026-4.354 1.827 3.927c-0.761 0.354-1.429 0.427-1.801 0.427l-0.026-4.354 1.827 3.927-2.089-4.49 4.033 2.882c-0.427 0.618-1.185 1.269-1.944 1.608l-2.089-4.49 4.033 2.882-0.007 0.009-0.013 0.017-3.888-2.807 4.508 1.663c-0.095 0.253-0.26 0.643-0.62 1.144l-3.888-2.807 4.508 1.663-2.793-1.029 2.908 0.647c-0.014 0.066-0.045 0.188-0.115 0.382l-2.793-1.029 2.908 0.647-0.769-0.172 0.782 0.113-0.013 0.059-0.769-0.172 0.782 0.113c-0.006 0.031-0.036 0.292-0.033 0.705v0.061l-6.878 0.05 6.873-0.229 0.554 16.656v0.026c0.011 0.404 0.018 0.807 0.018 1.21 0 4.771-0.819 9.251-2.777 13.232-1.996 4.087-5.07 7.562-8.88 10.025l-0.001 0.002c-3.602 2.346-7.706 3.965-12.165 4.947l-0.006 0.001c-4.287 0.941-8.782 1.413-13.454 1.441h-0.759c-6.185 0-11.661-0.441-16.519-1.403-4.89-0.972-9.154-2.302-12.855-4.185l0.001 0.001c-3.66-1.866-6.821-4.302-9.073-7.55l0.001 0.002c-1.055-1.524-1.908-3.189-2.488-4.958-0.582-1.767-0.882-3.632-0.891-5.488v0.023 0.031l-0.001-0.166c-0.002-2.087 0.371-4.19 1.104-6.15 0.728-1.962 1.802-3.771 3.109-5.383l0.031-0.041-0.033 0.042c1.534-1.904 3.483-3.434 5.614-4.548 2.137-1.122 4.453-1.858 6.903-2.325l3.948-0.75 2.592 3.075c0.685 0.816 1.92 1.799 4.012 2.732h-0.004c1.534 0.695 4.017 1.238 7.473 1.231h0.208c1.08 0 1.725-0.147 1.772-0.175l0.046 0.146-0.053-0.142 0.007-0.004 0.046 0.146-0.053-0.142 0.708 1.803-1.128-1.56c0.226-0.162 0.378-0.226 0.42-0.243l0.708 1.803-1.128-1.56 2.003 2.77-2.762-2c0.247-0.344 0.538-0.611 0.759-0.77l2.003 2.77-2.762-2-0.008 0.011 1.383 0.998-1.555-0.707 0.172-0.291 1.383 0.998-1.555-0.707 0.615 0.278-0.648-0.198 0.033-0.08 0.615 0.278-0.648-0.198 0.033-0.185c0.019-0.128 0.035-0.325 0.035-0.585 0-0.21-0.011-0.461-0.037-0.749l6.855-0.586 1.383 6.737c-1.283 0.264-2.748 0.486-4.514 0.715h-0.011c-2.051 0.259-4.336 0.377-6.951 0.392-0.18 0.002-0.357 0.002-0.535 0.002-5.328-0.002-10.135-0.467-14.478-1.496-4.334-1.035-8.24-2.651-11.562-5.05-3.245-2.334-5.913-5.351-7.667-8.881-1.766-3.523-2.59-7.464-2.609-11.514v0.024-0.01l-0.001-0.198c-0.002-3.323 0.54-6.575 1.711-9.597 1.165-3.021 2.96-5.779 5.236-8.106l-0.029 0.028 0.026-0.024c2.543-2.623 5.768-4.488 9.284-5.634 3.528-1.156 7.369-1.659 11.54-1.687h0.336c3.533 0 6.837 0.323 9.928 1.048 3.088 0.726 5.973 1.858 8.544 3.493 2.531 1.604 4.754 3.66 6.549 6.057 1.8 2.398 3.171 5.118 4.144 8.051l-6.526 2.169-6.703 1.544c-0.308-1.328-0.486-2.677-0.56-4.037v0.024-0.01c-0.064-1.104-0.096-2.069-0.101-2.925v0.019l-0.002-0.131c-0.002-2.459 0.478-5.028 1.766-7.375 1.266-2.351 3.35-4.271 5.623-5.42l-0.004 0.003c2.112-1.087 4.338-1.705 6.753-2.122 2.415-0.409 5.033-0.59 7.935-0.607 0.181-0.004 0.359-0.004 0.53-0.004 4.169 0.004 7.993 0.319 11.505 1.014 3.512 0.701 6.729 1.781 9.609 3.382h0.002zm-76.216 0.481-4.102 5.523c-0.637-0.48-1.837-1.125-3.618-1.701-1.779-0.584-4.119-1.109-6.961-1.497-4.91-0.681-8.74-0.998-11.23-1h-0.044c-1.044-0.002-1.804 0.107-2.247 0.22-0.225 0.057-0.371 0.113-0.449 0.148l-0.073 0.038-0.007 0.003-0.119-0.187 0.13 0.181-0.011 0.006-0.119-0.187 0.13 0.181 0.026-0.021-0.032 0.024c-0.015 0.014-0.12 0.111-0.289 0.417-0.167 0.302-0.386 0.809-0.583 1.538l0.016-0.063-0.018 0.068c-0.598 2.174-1.248 5.579-1.856 9.999-0.345 2.512-0.671 5.216-0.969 8.11v0.004c-0.314 3.021-0.647 5.828-1.004 8.419-0.201 1.448-0.472 2.789-0.918 4.132-0.459 1.336-1.059 2.725-2.309 4.165-1.053 1.201-2.459 2.109-3.826 2.602-1.376 0.507-2.691 0.665-3.895 0.667-0.693 0-1.356-0.056-2.001-0.145-2.032-0.275-3.989-0.985-5.716-1.99l-0.017-0.011 0.02 0.014c-2.257-1.295-4.02-3.295-5.144-5.423l-1.055-1.972 5.533-40.145 6.814 0.94-3.679 5.813c-0.014-0.014-0.373-0.215-0.966-0.455-0.595-0.246-1.429-0.542-2.459-0.863-1.978-0.616-4.03-1.071-6.159-1.366-3.821-0.527-6.827-0.767-8.802-0.764h-0.121c-0.739 0.004-1.236 0.09-1.511 0.171-0.277 0.079-0.319 0.13-0.324 0.126l-0.008 0.009c-0.013 0.01-0.12 0.086-0.315 0.389-0.192 0.298-0.453 0.819-0.703 1.59l-0.056 0.17 0.056-0.168c-0.589 1.777-1.259 4.899-1.827 9.057-0.579 4.194-1.086 8.583-1.516 13.164v0.004c-0.437 4.623-0.82 9.227-1.151 13.817l-0.546 7.611-15.27-2.705 1.203-6.774 5.731 3.803c-0.902 1.339-1.786 2.226-2.587 3.03-1.202 1.177-2.266 2.142-2.839 2.798-0.285 0.32-0.434 0.545-0.432 0.549l-1.076-0.629 1.16 0.438-0.084 0.191-1.076-0.629 1.16 0.438-2.695-1.018 2.847 0.395c-0.037 0.279-0.103 0.491-0.152 0.623l-2.695-1.018 2.847 0.395-1.889-0.259h1.907l-0.018 0.259-1.889-0.259h1.907-1.748l1.686-0.484c0.03 0.106 0.064 0.29 0.062 0.484h-1.748l1.686-0.484-0.961 0.276 0.926-0.375 0.035 0.099-0.961 0.276 0.926-0.375-0.201 0.08 0.193-0.101 0.008 0.021-0.201 0.08 0.193-0.101c0 0.054 0.522 0.76 1.45 1.521 0.914 0.775 2.139 1.621 3.381 2.477l0.002 0.002c0.807 0.571 2.399 1.354 4.709 2.046 2.308 0.7 5.319 1.337 8.952 1.835 3.954 0.548 7.119 0.853 9.356 0.942h0.005-0.011c0.39 0.013 0.782 0.02 1.179 0.02 1.734 0 3.525-0.146 5.389-0.447l1.101 6.789-6.822 0.882-1.845-14.31 13.489-2.573c0.724 2.862 1.643 5.038 2.588 6.555l0.146 0.235-0.144-0.235c1.051 1.692 2.171 2.934 3.358 3.868l-0.048-0.034 0.05 0.038c1.285 1.007 2.709 1.795 4.378 2.396l-0.014-0.007 0.009 0.003c1.83 0.651 3.93 1.16 6.324 1.49 1.259 0.174 2.42 0.255 3.489 0.255 1.654 0 3.077-0.193 4.315-0.524 1.239-0.336 2.299-0.806 3.276-1.429l0.066-0.042-0.068 0.042c0.977-0.636 1.841-1.526 2.695-3.156 0.842-1.62 1.587-3.981 2.014-7.108 0.366-2.655 0.799-5.986 1.298-9.972l-0.012 0.097 0.012-0.09c0.471-3.777 0.93-9.061 1.348-15.735l0.48-7.67 15.775 2.76-1.185 6.776-5.418-4.239c0.394-0.507 0.648-0.985 0.84-1.555l0.01-0.034-0.014 0.045c0.269-0.806 0.541-1.972 0.744-3.454v0.002c0.067-0.489 0.094-0.911 0.094-1.263-0.004-0.838-0.141-1.243-0.239-1.458-0.112-0.216-0.18-0.33-0.527-0.604l-0.092-0.067 0.09 0.067 4.102-5.523 4.1-5.522c2.013 1.483 3.719 3.507 4.789 5.821 1.085 2.313 1.538 4.822 1.534 7.286 0 1.045-0.078 2.094-0.222 3.14-0.293 2.121-0.707 4.065-1.308 5.891l0.011-0.035-0.015 0.045c-0.683 2.059-1.73 3.997-3.063 5.698l-2.542 3.247-12.266-2.148 1.187-6.776 6.866 0.43c-0.43 6.851-0.9 12.343-1.428 16.577l0.012-0.096-0.012 0.099c-0.503 4.021-0.942 7.398-1.321 10.139-0.592 4.268-1.658 8.124-3.42 11.544-1.748 3.408-4.283 6.379-7.497 8.425v0.002c-2.188 1.403-4.595 2.45-7.121 3.128-2.528 0.681-5.173 0.997-7.888 0.997-1.756 0-3.547-0.132-5.369-0.385-3.204-0.441-6.229-1.15-9.059-2.158l0.014 0.005-0.021-0.007c-2.99-1.064-5.783-2.589-8.262-4.542l0.024 0.02-0.019-0.016c-2.581-2.028-4.763-4.555-6.544-7.427l-0.139-0.226 0.141 0.226c-1.892-3.052-3.247-6.535-4.237-10.427l6.667-1.692 6.823-0.88 2.699 20.912-6.571 1.068c-2.551 0.415-5.084 0.627-7.595 0.627-0.571 0-1.145-0.013-1.715-0.034h-0.005c-2.93-0.119-6.446-0.477-10.688-1.061-4.159-0.572-7.823-1.315-11.063-2.298-3.239-0.987-6.071-2.189-8.561-3.906l0.002 0.002c-0.753-0.523-1.699-1.167-2.715-1.925-1.527-1.153-3.238-2.535-4.819-4.495-0.784-0.985-1.539-2.134-2.127-3.519-0.586-1.378-0.986-3.019-0.984-4.764 0-0.538 0.037-1.08 0.112-1.621 0.158-1.148 0.492-2.16 0.882-3.028 0.69-1.52 1.528-2.634 2.317-3.573 1.193-1.395 2.345-2.437 3.22-3.281 0.435-0.417 0.8-0.774 1.043-1.038l0.269-0.302 0.055-0.072 0.044 0.033-0.044-0.029v-0.004l0.044 0.033-0.044-0.029 2.492-3.755 12.194 2.159-1.201 6.775-6.861-0.493c0.338-4.691 0.729-9.399 1.175-14.125v0.003c0.448-4.77 0.977-9.353 1.583-13.754 0.646-4.641 1.375-8.352 2.376-11.446v0.004c0.543-1.667 1.246-3.257 2.19-4.736 0.942-1.476 2.142-2.848 3.609-3.955l-0.009 0.007c1.479-1.125 3.162-1.917 4.872-2.403 1.716-0.486 3.46-0.688 5.217-0.698h0.184c2.98 0.003 6.466 0.316 10.681 0.896 2.862 0.396 5.656 1.014 8.366 1.857 1.313 0.41 2.495 0.82 3.587 1.268 1.094 0.451 2.091 0.92 3.109 1.562l3.74 2.369-5.832 42.31-6.814-0.937 6.064-3.25 0.082 0.139 0.012 0.017-0.537 0.464 0.354-0.609 0.183 0.145-0.537 0.464 0.354-0.609 0.003 0.003c0.348 0.198 0.525 0.24 0.694 0.265l0.115 0.013 0.019 0.004-0.012 0.266v-0.266h0.012l-0.012 0.266v-0.266 2.567l-0.879-2.38c0.517-0.187 0.829-0.187 0.879-0.187v2.567l-0.879-2.38 1.473 3.986-3.169-2.809c0.49-0.57 1.185-0.996 1.696-1.177l1.473 3.986-3.169-2.809 2.342 2.074-2.783-1.458c0.053-0.097 0.172-0.313 0.441-0.616l2.342 2.074-2.783-1.458 0.972 0.51-1.005-0.443 0.033-0.067 0.972 0.51-1.005-0.443 0.006-0.013c0.049-0.115 0.233-0.745 0.363-1.722 0.33-2.406 0.647-5.062 0.947-7.963l0.006-0.041-0.006 0.046c0.313-3.035 0.656-5.893 1.026-8.577 0.661-4.774 1.362-8.613 2.212-11.742l-0.009 0.031 0.007-0.024c0.495-1.816 1.18-3.554 2.159-5.174 0.977-1.618 2.278-3.117 3.888-4.291l-0.005 0.004c1.625-1.184 3.431-1.945 5.253-2.403 1.827-0.462 3.693-0.642 5.624-0.642h0.081c3.513 0.01 7.786 0.402 13.071 1.128 3.455 0.476 6.553 1.131 9.355 2.048 2.798 0.917 5.32 2.087 7.549 3.733h-0.001zm-89.114 4.219-6.844 0.677c-0.31-3.059-1.303-5.944-3.174-8.932l0.044 0.072-0.043-0.069c-1.82-2.889-4.554-5.749-8.418-8.514l-0.091-0.065 0.091 0.065c-3.698-2.648-8.632-5.055-14.844-7.047-8.197-2.65-14.705-3.837-19.056-3.82-1.083 0-2.024 0.069-2.823 0.188h-0.002c-2.013 0.301-3.157 0.867-3.93 1.489-0.766 0.635-1.368 1.423-1.899 3.024l0.701-2.184-0.701 2.184c-0.263 0.823-0.368 1.532-0.368 2.205 0 0.625 0.089 1.236 0.295 1.914l-0.032-0.102 0.032 0.102c0.185 0.596 0.452 1.138 0.884 1.732 0.431 0.587 1.042 1.222 1.911 1.885l-4.174 5.469-1.949-6.601c3.549-1.045 7.362-1.628 11.425-1.816h-0.005c0.471-0.02 0.947-0.031 1.421-0.031 4.28 0.003 8.735 0.854 13.471 2.371 2.071 0.667 3.886 1.327 5.503 2.021 1.617 0.702 3.029 1.41 4.396 2.369l-0.006-0.004c1.028 0.732 2.034 1.573 2.978 2.833 0.467 0.635 0.914 1.387 1.255 2.288 0.342 0.898 0.564 1.955 0.562 3.047 0.002 0.888-0.148 1.786-0.409 2.596l0.038-0.112-0.038 0.113c-0.379 1.191-1.076 2.554-2.251 3.711-1.159 1.167-2.755 1.974-4.199 2.278l-0.011 0.002-0.008 0.004c-1.017 0.222-1.993 0.302-2.937 0.304-0.533 0-1.058-0.027-1.577-0.075l0.62-6.851-0.383 6.868c-2.285-0.128-4.87-0.215-7.742-0.26h-0.004-0.004c-2.175-0.039-4.735-0.056-7.668-0.056-0.955 0-1.951 0.002-2.985 0.005h0.024 0.026c-2.69 0.03-5.069 0.351-7.172 0.912-2.103 0.562-3.934 1.363-5.581 2.399l-0.036 0.02 0.034-0.02c-1.537 0.971-2.797 2.142-3.908 3.645-1.107 1.504-2.056 3.362-2.803 5.688-0.908 2.823-1.323 5.452-1.323 7.968 0 0.867 0.049 1.719 0.149 2.567 0.396 3.319 1.474 6.333 3.378 9.32 1.893 2.955 4.599 5.773 8.322 8.435h-0.002c3.603 2.574 8.225 4.842 13.935 6.676 4.861 1.564 9.038 2.498 12.412 2.863h-0.003c1.427 0.152 2.728 0.226 3.896 0.226 1.669 0 3.062-0.15 4.162-0.39l-0.008 0.004c1.974-0.437 3.055-1.07 3.698-1.654l-0.013 0.015 0.007-0.009c0.876-0.816 1.361-1.574 1.732-2.682 0.431-1.342 0.581-2.403 0.58-3.186-0.005-0.816-0.138-1.331-0.351-1.81l0.018 0.04-0.017-0.037c-0.307-0.669-0.72-1.289-1.344-1.941-0.622-0.649-1.465-1.323-2.601-1.989l3.474-5.938 3.143 6.12c-1.787 0.896-3.419 1.28-5.223 1.606h-0.007-0.008c-1.8 0.306-3.681 0.465-5.666 0.507h-0.008-0.005c-0.254 0.003-0.51 0.007-0.768 0.007-1.824 0-3.689-0.122-5.594-0.358l-0.011-0.002c-2.263-0.282-4.443-0.744-6.529-1.415-2.364-0.76-4.438-1.516-6.274-2.308-1.838-0.799-3.431-1.609-4.917-2.643l-0.006-0.003c-1.168-0.83-2.293-1.781-3.303-3.165-0.499-0.693-0.964-1.505-1.307-2.451-0.343-0.941-0.553-2.019-0.551-3.114-0.002-0.944 0.152-1.907 0.439-2.79l-0.024 0.074 0.023-0.072c0.337-1.026 0.834-2.182 1.838-3.377 0.501-0.591 1.137-1.174 1.902-1.657 0.762-0.486 1.645-0.857 2.529-1.06l-0.007 0.001-0.007 0.002c1.033-0.238 1.944-0.301 2.816-0.303 0.557 0 1.099 0.027 1.641 0.079l0.118 0.011 0.117 0.014c2.576 0.331 5.442 0.597 8.587 0.793h-0.002-0.004c3.238 0.2 6.983 0.404 11.239 0.613l-0.336 6.871 0.245-6.875c0.615 0.021 1.214 0.032 1.794 0.032 3.123 0.003 5.717-0.32 7.756-0.857 2.048-0.537 3.523-1.27 4.615-2.092l-0.085 0.065 0.083-0.063c1.6-1.206 2.855-2.487 3.854-3.861 0.998-1.38 1.75-2.859 2.292-4.542 0.773-2.411 1.144-4.773 1.144-7.184 0-0.77-0.037-1.542-0.114-2.325l6.844-0.677 6.847-0.679c0.121 1.226 0.181 2.455 0.181 3.681 0.002 3.854-0.609 7.681-1.804 11.392-0.967 3.021-2.398 5.86-4.254 8.413-1.852 2.555-4.121 4.82-6.715 6.774h-0.002c-2.744 2.067-5.939 3.499-9.394 4.406-3.462 0.906-7.204 1.305-11.248 1.308-0.752 0-1.513-0.015-2.286-0.041l-0.045-0.002-0.046-0.001c-4.301-0.212-8.103-0.42-11.413-0.625h-0.004c-3.398-0.212-6.554-0.504-9.474-0.875l0.872-6.823-0.638 6.847c-0.182-0.017-0.307-0.021-0.365-0.021h-0.033l-0.091-1.974 0.448 1.917c-0.251 0.057-0.357 0.057-0.357 0.057l-0.091-1.974 0.448 1.917-0.005 0.001h-0.007l-1.263-5.43 2.986 4.71c-0.513 0.324-1.126 0.585-1.723 0.72l-1.263-5.43 2.986 4.71-2.774-4.375 4.341 2.849c-0.28 0.434-0.791 1.034-1.567 1.526l-2.774-4.375 4.341 2.849-2.951-1.938 3.378 1.086c-0.043 0.126-0.141 0.411-0.427 0.852l-2.951-1.938 3.378 1.086 0.023-0.075-0.025 0.077-4.423-1.422h4.645c0.002 0.487-0.081 0.994-0.222 1.422l-4.423-1.422h4.645-4.617l4.345-1.575c0.157 0.427 0.274 0.993 0.272 1.575h-4.617l4.345-1.575-3.073 1.114 2.455-2.208c0.095 0.112 0.378 0.443 0.618 1.094l-3.073 1.114 2.455-2.208-0.731 0.657 0.684-0.706 0.047 0.049-0.731 0.657 0.684-0.706 0.008 0.005 0.233 0.18-0.006-0.004c0.331 0.238 1.203 0.736 2.482 1.283 1.281 0.554 2.976 1.18 5.029 1.84 1.181 0.379 2.518 0.674 4.026 0.863h-0.007-0.001c1.397 0.172 2.7 0.253 3.907 0.253 0.17 0 0.338-0.001 0.503-0.005h-0.003-0.009c1.427-0.029 2.651-0.144 3.658-0.314h-0.005-0.009c0.5-0.083 0.878-0.173 1.104-0.24l0.215-0.069 0.012-0.003 0.335 0.812-0.403-0.781 0.068-0.031 0.335 0.812-0.403-0.781 3.359-1.726 3.259 1.906c2.074 1.212 3.958 2.648 5.58 4.337 1.619 1.684 2.965 3.628 3.932 5.753l0.02 0.042-0.018-0.038c1.081 2.361 1.596 4.954 1.591 7.518-0.002 2.488-0.457 4.955-1.239 7.394-1.049 3.31-2.996 6.323-5.565 8.642l-0.013 0.014 0.006-0.007c-2.799 2.548-6.291 4.103-10.011 4.912l0.012-0.004-0.021 0.006c-2.251 0.489-4.61 0.704-7.085 0.704-1.732 0-3.521-0.108-5.381-0.309h-0.005c-4.61-0.507-9.615-1.673-15.127-3.44-6.78-2.181-12.709-5-17.723-8.58l-0.04-0.028 0.038 0.026c-4.897-3.498-8.934-7.561-11.91-12.209-2.965-4.616-4.831-9.757-5.455-15.135v-0.002c-0.162-1.382-0.242-2.773-0.242-4.169-0.002-4.054 0.683-8.138 1.982-12.176 1.134-3.535 2.723-6.785 4.818-9.63 2.088-2.846 4.684-5.268 7.665-7.14l0.036-0.021-0.037 0.021c2.865-1.802 6.017-3.154 9.362-4.045 3.345-0.895 6.88-1.337 10.571-1.375l0.025-0.004h0.024c1.05-0.003 2.061-0.003 3.036-0.003 2.989 0 5.619 0.017 7.898 0.055h-0.003-0.004c3.028 0.049 5.788 0.141 8.294 0.281l0.12 0.007 0.119 0.011 0.334 0.017 0.094-0.003 0.093 0.94-0.203-0.919 0.11-0.021 0.093 0.94-0.203-0.919h-0.009l-0.01 0.003 1.113 4.993-3.588-3.634c0.693-0.706 1.714-1.206 2.475-1.359l1.113 4.993-3.588-3.634 3.255 3.297-4.437-1.423c0.133-0.424 0.473-1.174 1.182-1.874l3.255 3.297-4.437-1.423-0.038 0.114 0.038-0.114 5.011 1.609h-5.262c-0.002-0.558 0.094-1.127 0.251-1.609l5.011 1.609h-5.262 5.126l-4.801 1.811c-0.185-0.481-0.328-1.125-0.325-1.811h5.126l-4.801 1.811 3.608-1.361-2.87 2.621c-0.137-0.156-0.456-0.528-0.738-1.26l3.608-1.361-2.87 2.621 0.852-0.779-0.752 0.88-0.1-0.101 0.852-0.779-0.752 0.88-0.136-0.101 0.015 0.007-0.018-0.011c-0.146-0.112-0.83-0.513-1.888-0.961-1.062-0.458-2.505-0.993-4.273-1.559-3.738-1.207-6.862-1.72-9.264-1.715-0.267 0-0.527 0.006-0.777 0.017h-0.004-0.002c-3.144 0.146-5.862 0.591-8.163 1.271l-3.347 0.987-2.775-2.119c-1.769-1.351-3.346-2.903-4.648-4.674-1.3-1.764-2.312-3.753-2.954-5.857l-0.03-0.097 0.03 0.101c-0.588-1.921-0.897-3.931-0.896-5.938-0.001-2.177 0.359-4.343 1.028-6.413l-0.703 2.184 0.701-2.184c1.166-3.684 3.308-7.072 6.341-9.51 3.02-2.451 6.722-3.851 10.601-4.409h-0.002c1.554-0.231 3.156-0.331 4.814-0.331 6.636 0.018 14.235 1.591 23.263 4.479 7.234 2.327 13.46 5.254 18.64 8.955h0.002c5.01 3.583 9.097 7.68 12.052 12.368l0.044 0.069-0.042-0.069c2.898 4.587 4.709 9.647 5.223 14.909z" fill="#fff"/><path d="m470.49 279.64c-3.671-1.148-9.224-0.587-16.654 1.677-2.412 0.736-4.426 1.487-6.041 2.24-1.617 0.757-2.924 1.656-3.923 2.701-1.002 1.042-1.808 2.292-2.419 3.743-0.612 1.452-1.121 3.243-1.526 5.372l-2.974 15.145c-0.334 1.684-0.356 3.851-0.07 6.511l-7.95-26.056c-1.818-0.08-3.959 0.073-6.426 0.456-2.468 0.385-4.81 0.913-7.029 1.589-5.504 1.681-9.248 3.403-11.241 5.171-1.991 1.767-2.847 3.979-2.563 6.635 0.188 1.312 0.545 3.079 1.062 5.293 0.518 2.215 1.186 4.755 2.005 7.616 0.818 2.861 1.73 5.932 2.732 9.215 1.03 3.375 2.103 6.896 3.222 10.566 1.236 4.053 2.429 7.961 3.578 11.725 1.175 3.858 2.287 7.423 3.338 10.687 1.049 3.267 1.995 6.198 2.839 8.788 0.843 2.591 1.485 4.611 1.928 6.057 1.279 3.513 2.556 6.314 3.829 8.404 1.268 2.09 2.681 3.611 4.238 4.561 1.556 0.949 3.323 1.385 5.303 1.311 1.979-0.079 4.323-0.528 7.024-1.354 3.089-0.94 5.689-1.921 7.809-2.935 2.115-1.015 4.07-2.217 5.861-3.607l-15.498-50.807 13.072 9.145c3.452 2.321 6.747 4.136 9.891 5.448 3.141 1.309 6.497 1.42 10.069 0.329 4.63-1.411 7.916-3.259 9.861-5.539 1.939-2.279 2.41-5.061 1.409-8.342-0.206-0.675-0.551-1.544-1.032-2.611-0.485-1.066-0.927-1.905-1.325-2.522l-19.072-8.582c0.901-1.538 2-3.986 3.3-7.334l5.04-13.56 6.312-1.612c0.416-2.448 0.108-5.357-0.923-8.735-1.033-3.379-3.382-5.643-7.056-6.789m-79.176 22.372c-5.887-1.681-13.977-1.816-24.27-0.396-11.195 1.541-19.314 5.259-24.357 11.147-5.045 5.89-6.879 13.831-5.5 23.827 0.757 5.494 2.354 10.42 4.784 14.769 2.435 4.348 5.652 7.928 9.655 10.738 4.001 2.81 8.778 4.773 14.332 5.891 5.552 1.118 11.875 1.191 18.972 0.212 8.097-1.115 13.663-3.208 16.705-6.274 3.038-3.069 4.292-6.55 3.753-10.448-0.357-2.6-1.284-4.866-2.771-6.798-1.487-1.934-3.423-3.401-5.8-4.395-1.331 0.692-3.077 1.34-5.232 1.944-2.158 0.602-4.535 1.083-7.133 1.44-2.5 0.346-4.691 0.317-6.58-0.084-1.89-0.405-3.483-1.049-4.774-1.94-1.296-0.89-2.305-1.923-3.025-3.097-0.724-1.175-1.174-2.409-1.351-3.708-0.426-3.101 0.04-5.607 1.407-7.528 1.362-1.919 4.145-3.169 8.342-3.746 2.298-0.32 5.081-0.448 8.35-0.389 3.266 0.06 6.162 0.375 8.684 0.945 1.95-1.393 3.471-3.078 4.574-5.063 1.101-1.985 1.459-4.378 1.072-7.175-0.675-4.897-3.953-8.189-9.837-9.872m-97.785 33.139c-0.705 0.054-1.613 0.085-2.723 0.092-2.421 0.014-4.293-0.558-5.609-1.708-1.319-1.153-1.982-2.484-1.991-3.997-0.007-1.114 0.441-2.099 1.344-2.961 0.904-0.864 2.06-1.297 3.473-1.306 3.126-0.018 5.657 1.276 7.591 3.889l0.184 5.6c-0.807 0.205-1.565 0.334-2.269 0.391m38.834-23.609c-4.304-2.397-10.391-3.572-18.259-3.526-5.248 0.033-9.103 0.684-11.565 1.96-2.467 1.274-3.688 3.526-3.668 6.757 0.003 0.703 0.033 1.562 0.09 2.573 0.057 1.005 0.186 1.965 0.396 2.871-1.542-4.631-4.16-8.124-7.856-10.472-3.698-2.35-8.723-3.503-15.078-3.466-7.264 0.039-12.578 1.786-15.935 5.237-3.362 3.448-5.024 7.798-4.994 13.045 0.037 6.357 2.512 11.308 7.427 14.864 4.914 3.552 12.414 5.298 22.505 5.239 2.42-0.013 4.462-0.128 6.126-0.337 1.663-0.214 2.998-0.423 4.007-0.629 0.216 2.519-0.152 4.439-1.101 5.756-0.953 1.314-2.991 1.985-6.118 2.004-4.238 0.024-7.746-0.585-10.53-1.83-2.781-1.245-4.934-2.772-6.457-4.578-3.832 0.727-6.646 2.207-8.45 4.438-1.803 2.229-2.697 4.655-2.681 7.28 0.014 2.32 0.73 4.511 2.159 6.571 1.423 2.057 3.601 3.839 6.538 5.334 2.933 1.497 6.621 2.685 11.068 3.567 4.443 0.881 9.743 1.305 15.898 1.271 4.239-0.026 8.246-0.455 12.025-1.283 3.778-0.832 7.073-2.16 9.889-3.991 2.812-1.834 4.968-4.268 6.463-7.304 1.497-3.034 2.18-6.773 2.054-11.21l-0.551-16.645c-0.01-1.614 0.185-2.701 0.585-3.257 0.4-0.559 1.002-0.84 1.812-0.844 1.612-0.01 3.18 0.333 4.697 1.032 2.314-1.226 3.893-2.746 4.739-4.566 0.848-1.823 1.264-3.791 1.252-5.911-0.024-4.238-2.187-7.554-6.487-9.95m-76.216 0.481c-2.865-2.127-7.444-3.623-13.741-4.491-5.099-0.702-9.15-1.056-12.153-1.062-3.002-0.008-5.298 0.566-6.881 1.722-1.588 1.158-2.739 3.058-3.462 5.711-0.723 2.65-1.399 6.273-2.033 10.872-0.357 2.597-0.692 5.378-0.998 8.341-0.307 2.961-0.631 5.693-0.975 8.192-0.317 2.296-0.838 3.855-1.561 4.674-0.724 0.816-1.936 1.108-3.634 0.871-1.102-0.15-2.169-0.527-3.205-1.128-1.04-0.601-1.881-1.506-2.528-2.715l5.228-37.93c-1.033-0.652-2.717-1.343-5.062-2.072-2.343-0.729-4.765-1.267-7.263-1.615-4.099-0.563-7.395-0.84-9.891-0.826-2.499 0.01-4.487 0.576-5.964 1.698-1.478 1.118-2.613 2.896-3.408 5.336-0.794 2.433-1.495 5.85-2.102 10.25-0.592 4.295-1.109 8.783-1.549 13.458-0.441 4.677-0.827 9.333-1.162 13.972l-7.753-1.375c-1.674 2.521-2.721 5.326-3.149 8.426-0.578 4.198 0.782 7.441 4.081 9.729 3.3 2.288 8.85 3.969 16.645 5.045 4.096 0.566 7.438 0.896 10.021 0.998 2.584 0.103 5.228-0.069 7.937-0.51l-1.846-14.308c0.857 3.376 1.994 6.207 3.413 8.491 1.417 2.281 3.067 4.164 4.951 5.647 1.881 1.481 3.989 2.637 6.32 3.468 2.329 0.831 4.892 1.438 7.692 1.825 6.297 0.867 11.539-0.039 15.728-2.722 4.189-2.681 6.793-7.718 7.812-15.114 0.372-2.699 0.808-6.053 1.312-10.055 0.499-4.007 0.961-9.392 1.385-16.156l8.205 1.436c0.862-1.102 1.515-2.311 1.95-3.627 0.435-1.312 0.778-2.871 1.025-4.67 0.606-4.399-0.522-7.659-3.385-9.786m-89.114 4.219c-0.412-4.162-1.813-8.134-4.198-11.918-2.385-3.788-5.8-7.267-10.236-10.445-4.439-3.173-10.019-5.84-16.742-7.999-10.759-3.459-19.085-4.753-24.978-3.892-5.894 0.86-9.688 3.934-11.384 9.218-0.896 2.785-0.929 5.528-0.104 8.232 0.827 2.702 2.561 5.059 5.201 7.077 2.923-0.865 6.187-1.379 9.793-1.542 3.604-0.17 7.758 0.503 12.465 2.018 3.842 1.232 6.519 2.381 8.03 3.451 1.511 1.065 2.114 2.083 1.805 3.041-0.248 0.769-0.711 1.227-1.398 1.382-0.682 0.15-1.487 0.182-2.416 0.097-2.394-0.134-5.068-0.225-8.019-0.271-2.95-0.049-6.55-0.066-10.792-0.049-6.38 0.068-11.829 1.525-16.344 4.366-4.516 2.84-7.713 7.19-9.596 13.051-1.481 4.611-1.967 9.088-1.459 13.44 0.513 4.348 1.984 8.424 4.419 12.227 2.432 3.804 5.803 7.243 10.115 10.325 4.309 3.076 9.583 5.621 15.828 7.629 5.187 1.664 9.778 2.714 13.771 3.15 3.994 0.434 7.414 0.338 10.262-0.28 2.848-0.621 5.135-1.716 6.857-3.281 1.721-1.569 2.936-3.454 3.646-5.663 1.236-3.843 1.214-7.162-0.06-9.954-1.275-2.795-3.516-5.132-6.729-7.011-0.761 0.393-1.844 0.705-3.244 0.945-1.403 0.24-2.956 0.375-4.661 0.41-1.707 0.033-3.505-0.066-5.389-0.299-1.886-0.236-3.644-0.615-5.277-1.14-4.418-1.419-7.535-2.766-9.352-4.037-1.817-1.274-2.524-2.534-2.124-3.781 0.279-0.867 0.702-1.366 1.276-1.499 0.573-0.133 1.323-0.157 2.249-0.07 2.748 0.349 5.759 0.628 9.031 0.833 3.273 0.201 7.046 0.408 11.326 0.618 8.17 0.293 14.353-1.139 18.546-4.295s7.046-7.09 8.557-11.795c1.297-4.035 1.739-8.131 1.325-12.289" fill="#ed1c24"/></g></g></g></g></g></svg>
